<?xml version="1.0" encoding="UTF-8"?>
<svg version="1.1" xmlns="http://www.w3.org/2000/svg" width="1344" height="768" viewBox="0 0 1344 768">
<path d="M0 0 C5.34219029 2.7892852 9.36452863 5.88374504 13.5625 10.1875 C14.40784302 11.04154419 14.40784302 11.04154419 15.27026367 11.9128418 C19.46152813 16.2354443 23.02586554 20.74433773 26 26 C28.98577503 24.65705315 31.03689051 23.1496314 33.375 20.875 C47.54758548 8.30339177 63.93983635 3.9383822 82.5703125 4.546875 C90.22550613 5.02515667 96.95189454 7.08076181 104 10 C104.94101562 10.38414062 105.88203125 10.76828125 106.8515625 11.1640625 C122.50731656 18.28912704 133.35016266 31.46560752 140 47 C142.12459663 52.78149596 143.49366922 58.76331861 144.8515625 64.76171875 C146.34290462 70.72494654 148.78248332 76.35767605 151.078125 82.046875 C160.70104778 106.53505909 155.62581666 132.26556836 146 156 C141.94963545 164.88198678 136.36445147 172.63266527 130 180 C129.41347656 180.70769531 128.82695312 181.41539062 128.22265625 182.14453125 C125.34873147 185.5528366 122.395065 188.60766578 119 191.5 C113.21661787 196.44763326 108.69133482 201.73415905 104.75 208.25 C101.61280041 213.38100069 97.93329657 217.58868866 93.73144531 221.85253906 C90.95036256 224.72441657 89.20346424 227.17395761 88 231 C88.87615967 231.42563232 88.87615967 231.42563232 89.77001953 231.85986328 C91.81228907 232.90402781 93.73714958 234.02483642 95.6796875 235.2421875 C96.36160156 235.66886719 97.04351562 236.09554687 97.74609375 236.53515625 C98.44863281 236.97730469 99.15117187 237.41945313 99.875 237.875 C100.56980469 238.30941406 101.26460938 238.74382812 101.98046875 239.19140625 C102.66496094 239.62066406 103.34945313 240.04992187 104.0546875 240.4921875 C104.72540283 240.91193848 105.39611816 241.33168945 106.0871582 241.76416016 C107.83733136 242.89490381 109.53362895 244.10793073 111.22265625 245.328125 C114.16967394 247.10213846 115.24346966 247.43311959 118.5625 246.875 C119.33722656 246.74996094 120.11195313 246.62492188 120.91015625 246.49609375 C123.11102864 246.03545704 123.11102864 246.03545704 125.5 244.9375 C129.33458813 243.49952945 132.95921596 243.42172525 137 244 C141.33950393 246.21069068 144.42973362 248.84803123 147 253 C147.25 256.3125 147.25 256.3125 147 259 C146.48050781 258.71125 145.96101563 258.4225 145.42578125 258.125 C140.03834532 255.23267168 140.03834532 255.23267168 134 255 C134.804375 255.825 135.60875 256.65 136.4375 257.5 C139.55500586 261.18112274 139.75501064 264.26353911 140 269 C137.51222434 267.85179585 135.71567809 266.75308887 133.625 264.9375 C129.39820642 261.99384018 124.3554185 262.55148195 119.390625 262.34375 C115.52377379 261.951719 113.32011164 260.85224533 110.046875 258.921875 C105.66874232 256.95004425 100.73101974 257.14022352 96 257 C95.0821875 256.96003906 94.164375 256.92007812 93.21875 256.87890625 C88.38336793 256.75510882 84.53500768 257.09052308 80 259 C79.6675126 255.42576047 79.81791672 253.36416656 81.4375 250.125 C84.71017273 247.41107627 86.65726786 247.54296056 90.78125 247.7265625 C92.92231638 247.99042631 94.9230336 248.42411386 97 249 C89.93016257 240.94967417 79.10965484 236.6349722 68.89453125 234.80859375 C64.2230812 233.50361378 61.11444181 230.63059931 58 227 C57.67 226.34 57.34 225.68 57 225 C56.2265625 225.14824219 55.453125 225.29648437 54.65625 225.44921875 C51.76656288 225.88452418 49.00226635 226.14942144 46.09375 226.33203125 C32.09133986 227.42077426 24.49041168 230.69335758 15 241 C14.19820312 241.64066406 13.39640625 242.28132812 12.5703125 242.94140625 C10.6876755 244.99594917 10.6876755 244.99594917 10.8984375 248.22265625 C12.30809422 253.05647912 14.64024799 256.43197894 17.625 260.4375 C18.44315186 261.55692993 18.44315186 261.55692993 19.27783203 262.69897461 C20.83537248 264.81231692 22.41388647 266.90806198 24 269 C24.70640625 269.95132812 25.4128125 270.90265625 26.140625 271.8828125 C29.39418189 276.04356745 29.39418189 276.04356745 34.3125 277.5625 C36.95546367 277.12830704 36.95546367 277.12830704 39 276 C52.3367716 274.95699607 52.3367716 274.95699607 56.6875 277.625 C60.25828886 281.29229667 61.90158451 284.22852118 62.1875 289.375 C62.125625 290.24125 62.06375 291.1075 62 292 C59.77305286 290.92776619 57.74019356 289.82445511 55.6875 288.4375 C52.45822277 286.71021218 49.62043143 286.35494426 46 286 C47.2065625 287.1446875 47.2065625 287.1446875 48.4375 288.3125 C52.63463216 292.71437031 52.09418275 296.25485221 52 302 C49.22236094 300.86836927 47.84871297 299.83000544 45.8203125 297.55078125 C42.4440198 294.49715364 39.97551462 293.86159541 35.5625 292.875 C30.58722498 291.74037623 26.5382526 290.29995682 22 288 C13.77582202 285.81855137 5.4528251 285.7545954 -3 286 C-2.39066137 279.54101054 -2.39066137 279.54101054 -0.76171875 277.28515625 C1.57035721 275.58393011 3.01326661 275.66301722 5.875 275.75 C6.71804688 275.76546875 7.56109375 275.7809375 8.4296875 275.796875 C11.01928241 276.00152384 13.46619526 276.43693228 16 277 C11.98577884 270.32847752 7.64028338 263.91981408 3.0625 257.625 C2.58522461 256.94759766 2.10794922 256.27019531 1.61621094 255.57226562 C-1.51888837 251.32905274 -4.61096541 248.63280064 -9.23120117 246.06982422 C-13.45804207 243.51330016 -15.54320213 239.57021987 -17 235 C-16.94571772 232.72828657 -16.86010637 230.45719272 -16.75 228.1875 C-16.8176606 224.43414383 -16.8176606 224.43414383 -18 221 C-21.18856982 218.3315515 -24.41132437 216.76145025 -28.140625 214.9921875 C-36.62139229 210.90430517 -44.22987192 203.00700071 -49 195 C-49 194.34 -49 193.68 -49 193 C-49.78375 193.2165625 -50.5675 193.433125 -51.375 193.65625 C-73.73902584 198.86166981 -98.93076251 198.27259002 -120 189 C-115.7100021 182.88696394 -110.89505785 177.63983771 -105.57421875 172.4140625 C-104.39192436 171.23957047 -104.39192436 171.23957047 -103.18574524 170.04135132 C-100.69109088 167.56437528 -98.18978986 165.09426031 -95.6875 162.625 C-93.16828777 160.13340808 -90.65056347 157.64035645 -88.13569641 155.14437866 C-86.57592807 153.59687143 -85.0134944 152.05204516 -83.44816589 150.51016235 C-82.7468605 149.81538788 -82.04555511 149.1206134 -81.32299805 148.40478516 C-80.70377975 147.79381989 -80.08456146 147.18285461 -79.44657898 146.55337524 C-77.90423061 145.04369164 -77.90423061 145.04369164 -77 143 C-77.78342773 142.75846191 -78.56685547 142.51692383 -79.37402344 142.26806641 C-84.02685198 140.64089219 -88.50162643 138.68630048 -93.015625 136.7109375 C-94.47038239 136.07776108 -94.47038239 136.07776108 -95.95452881 135.43179321 C-99.05406831 134.08192161 -102.15201582 132.72843667 -105.25 131.375 C-107.28636246 130.4880611 -109.32281995 129.60134034 -111.359375 128.71484375 C-116.30851724 126.55906833 -121.25433434 124.3958124 -126.19812012 122.2277832 C-128.03447342 121.42309355 -129.87144764 120.61981904 -131.70910645 119.81811523 C-134.19318549 118.7341323 -136.67500046 117.6451285 -139.15625 116.5546875 C-140.24078461 116.08317764 -140.24078461 116.08317764 -141.347229 115.60214233 C-152.45135922 110.70003291 -157.40376228 105.22795213 -162 94 C-164.05503873 87.83488381 -164.31010763 79.40236908 -161.953125 73.28125 C-161.06139992 71.7076175 -160.15219706 70.14377216 -159.2265625 68.58984375 C-157.70494521 65.37700216 -157.38726629 62.5271606 -157 59 C-155.86332492 49.47259614 -152.47141862 42.32798145 -145.32421875 35.828125 C-135.2634643 27.91479209 -125.66609956 26.6229852 -113.20361328 27.71044922 C-103.47476323 28.98880244 -97.71881183 35.56957944 -92 43 C-88.54725838 47.55752893 -85.17389751 52.17176732 -81.8125 56.796875 C-77.93662988 62.11614488 -73.94483561 67.34194317 -69.9375 72.5625 C-63.7685828 80.6140275 -57.76532167 88.76802684 -51.8671875 97.01953125 C-48.97427686 101.06059708 -45.99796329 105.03646751 -43 109 C-42.071875 108.195625 -41.14375 107.39125 -40.1875 106.5625 C-32.87655693 100.31682408 -25.46568912 94.23907439 -17.75 88.5 C-17.12440186 88.0344873 -16.49880371 87.56897461 -15.85424805 87.08935547 C-11.97380796 84.26497515 -8.01615184 81.8357487 -3.80541992 79.5378418 C3.12124879 75.88740149 3.12124879 75.88740149 7.5625 69.6875 C8.0826072 67.80248721 8.55225302 65.90349872 9 64 C9.50436461 62.30299803 10.01980076 60.60926843 10.54296875 58.91796875 C12.07566398 53.95857664 13.55176861 48.98464411 15 44 C6.39552566 44.95764083 -1.05656254 46.84895577 -9.1015625 49.9765625 C-12 51 -12 51 -15 51 C-14.94199219 50.05898438 -14.88398438 49.11796875 -14.82421875 48.1484375 C-14.18492183 40.09405516 -14.18492183 40.09405516 -17.5 33.125 C-18.325 32.42375 -19.15 31.7225 -20 31 C-18.34971962 29.34971962 -16.42114411 29.87000764 -14.15234375 29.8671875 C-12.65477539 29.86525391 -12.65477539 29.86525391 -11.12695312 29.86328125 C-9.54817383 29.86908203 -9.54817383 29.86908203 -7.9375 29.875 C-6.39932617 29.86919922 -6.39932617 29.86919922 -4.83007812 29.86328125 C0.87518541 29.87058165 6.35801605 30.14659066 12 31 C5.30169219 25.86802652 -1.29826135 21.47497102 -9 18 C-9 17.34 -9 16.68 -9 16 C-8.21625 15.773125 -7.4325 15.54625 -6.625 15.3125 C-3.88928452 14.24651015 -3.88928452 14.24651015 -2.8125 11.9375 C-1.72032068 7.9888517 -0.82183211 4.01298872 0 0 Z " fill="#070707" transform="translate(348,233)"/>
<path d="M0 0 C1.77092268 0.27024852 3.54172875 0.54126107 5.3125 0.8125 C6.46588867 0.98644287 7.61927734 1.16038574 8.80761719 1.33959961 C11.61200376 1.77115436 14.40382238 2.2474519 17.19506836 2.75683594 C28.9379397 4.8467447 40.33606412 5.51810056 52.25 5.4375 C53.13688507 5.4361203 54.02377014 5.4347406 54.93753052 5.43331909 C77.04667634 5.80150205 77.04667634 5.80150205 98 0 C99.99960012 -0.039992 102.00047242 -0.04346799 104 0 C107.09390731 5.12095002 108.37379347 9.51778193 109.3125 15.4375 C110.42592799 22.42946434 112.56592431 28.53702399 115.48754883 34.97631836 C123.31463764 52.4377367 122.35430676 75.20039887 116 93 C115.64591064 94.03060547 115.64591064 94.03060547 115.28466797 95.08203125 C105.25511069 123.79333643 82.24239423 143.88533218 55.36572266 156.90039062 C39.0581629 164.4802925 22.24069305 169.52398001 4.23242188 170.56152344 C-0.22677671 171.43736778 -2.91559437 174.87341447 -6 178 C-7.68622267 179.59025454 -9.38748431 181.16310669 -11.0925293 182.7331543 C-12.26912835 183.81692757 -13.44127906 184.90555268 -14.60864258 185.99926758 C-19.85455923 190.89394067 -19.85455923 190.89394067 -24.375 191.3125 C-28 191 -28 191 -30.375 189.1875 C-32.70664421 186.04874817 -33.12459564 183.56798557 -33.09765625 179.76953125 C-33.09443359 178.96708984 -33.09121094 178.16464844 -33.08789062 177.33789062 C-33.07532227 176.08782227 -33.07532227 176.08782227 -33.0625 174.8125 C-33.05798828 173.96751953 -33.05347656 173.12253906 -33.04882812 172.25195312 C-33.03705403 170.16793845 -33.0191189 168.08396023 -33 166 C-33.90621094 165.57589844 -34.81242187 165.15179688 -35.74609375 164.71484375 C-46.10724419 159.76725548 -55.55029347 153.95738523 -63 145 C-63.33 144.01 -63.66 143.02 -64 142 C-63.42258057 141.77449463 -62.84516113 141.54898926 -62.25024414 141.31665039 C-34.0655533 130.23761326 -4.60711458 117.29634433 8.3828125 87.8671875 C9.99444986 83.64086575 11 80.56453739 11 76 C10.65710938 76.62003906 10.31421875 77.24007812 9.9609375 77.87890625 C1.64963279 91.94261644 -12.60047809 108.64239921 -28 115 C-38.43450524 115.86041647 -49.06960246 111.65902955 -56.98828125 105.0625 C-64.61088373 97.24748231 -66.5806562 88.85783642 -66.4609375 78.21484375 C-65.69510756 72.87350443 -62.95159992 70.42996015 -59 67 C-58.29746094 66.319375 -57.59492188 65.63875 -56.87109375 64.9375 C-46.73384313 55.33198333 -35.42245396 47.3098645 -23.375 40.3125 C-16.88783513 36.50291192 -12.06057371 33.12904721 -9 26 C-8.505 24.9275 -8.01 23.855 -7.5 22.75 C-5.84150802 18.84901791 -4.8724453 14.87453234 -3.9375 10.75 C-2.26816609 3.40224913 -2.26816609 3.40224913 0 0 Z " fill="#FBFBFA" transform="translate(373,281)"/>
<path d="M0 0 C16 0 16 0 19.58203125 2.3515625 C20.31808594 3.43179687 21.05414062 4.51203125 21.8125 5.625 C22.23660156 6.20967041 22.66070313 6.79434082 23.09765625 7.39672852 C23.98688444 8.62448456 24.856236 9.86687171 25.70556641 11.12255859 C27.39859092 13.57811471 29.24698959 15.8864913 31.11425781 18.21069336 C32.50851272 19.9481079 33.88000781 21.70131186 35.24609375 23.4609375 C37.08464134 25.82655717 38.93045076 28.18608762 40.78515625 30.5390625 C41.25050781 31.12953369 41.71585938 31.72000488 42.1953125 32.32836914 C42.64648438 32.90063232 43.09765625 33.47289551 43.5625 34.0625 C48.76665087 40.66552663 53.87250364 47.33425474 59 54 C59.33 36.51 59.66 19.02 60 1 C66.27 1 72.54 1 79 1 C79 30.7 79 60.4 79 91 C63 91 63 91 58.95703125 87.60546875 C57.93352327 86.0952716 56.94873889 84.55825497 56 83 C54.80752416 81.42447644 53.60265562 79.85826982 52.38671875 78.30078125 C51.15062248 76.64026716 49.91763167 74.97743757 48.6875 73.3125 C47.36518488 71.53601042 46.04226787 69.75996869 44.71875 67.984375 C44.08195313 67.12908203 43.44515625 66.27378906 42.7890625 65.39257812 C38.91824194 60.21598949 34.95375594 55.11352435 31 50 C27.7 45.71 24.4 41.42 21 37 C20.67 54.82 20.34 72.64 20 91 C13.4 91 6.8 91 0 91 C0 60.97 0 30.94 0 0 Z " fill="#060606" transform="translate(535,350)"/>
<path d="M0 0 C17 0 17 0 21.37109375 3.26171875 C22.96386719 5.38378906 22.96386719 5.38378906 24.4375 7.6875 C24.99985352 8.4619043 25.56220703 9.23630859 26.14160156 10.03417969 C27.27332203 11.59795298 28.38351232 13.17756345 29.47021484 14.77294922 C31.22398076 17.32606967 33.09804865 19.75532266 35.01635742 22.18554688 C37.04798272 24.7619678 39.01730249 27.38584932 41 30 C42.70472763 32.23194262 44.41447797 34.45999675 46.125 36.6875 C46.87007812 37.66074219 47.61515625 38.63398438 48.3828125 39.63671875 C51.87672033 44.12665105 55.44599112 48.5574889 59 53 C59.33 35.51 59.66 18.02 60 0 C66.27 0 72.54 0 79 0 C79 29.7 79 59.4 79 90 C63 90 63 90 57.625 84.8125 C56.26196289 83.03979492 56.26196289 83.03979492 55.28515625 81.48046875 C53.42028983 78.61064208 51.42873284 75.90770334 49.31420898 73.21777344 C48.04764601 71.60609861 46.80316196 69.97933081 45.5625 68.34765625 C41.57857229 63.12717867 37.49973612 57.98088222 33.43505859 52.82324219 C31.91903995 50.89714024 30.4064088 48.96841638 28.89453125 47.0390625 C28.38913818 46.39445068 27.88374512 45.74983887 27.36303711 45.08569336 C26.38813455 43.84207279 25.4136715 42.59810752 24.43969727 41.35375977 C22.32547442 38.58549334 22.32547442 38.58549334 20 36 C19.67 53.82 19.34 71.64 19 90 C12.73 90 6.46 90 0 90 C0 60.3 0 30.6 0 0 Z " fill="#040404" transform="translate(828,351)"/>
<path d="M0 0 C2.33624461 -0.1642672 4.66068015 -0.28178232 7 -0.375 C8.299375 -0.44460938 9.59875 -0.51421875 10.9375 -0.5859375 C16.76362098 -0.2433489 20.73634566 3.49806625 24.51220703 7.67138672 C25.93080212 9.44779822 27.25407864 11.26606129 28.5625 13.125 C29.59450187 14.54467096 30.62708194 15.96392174 31.66015625 17.3828125 C32.19914551 18.13079102 32.73813477 18.87876953 33.29345703 19.64941406 C36.31044308 23.80499942 39.41105919 27.89779538 42.5 32 C43.78028584 33.70677782 45.06023708 35.41380668 46.33984375 37.12109375 C48.60069222 40.13575468 50.86342216 43.14897762 53.12890625 46.16015625 C56.09321711 50.10134783 59.04859851 54.04913432 62 58 C62.61391602 58.82048828 63.22783203 59.64097656 63.86035156 60.48632812 C65.80716729 63.09178256 67.74801362 65.7015865 69.6875 68.3125 C70.30052979 69.13177979 70.91355957 69.95105957 71.54516602 70.79516602 C72.11162842 71.56014404 72.67809082 72.32512207 73.26171875 73.11328125 C74.01908325 74.13095581 74.01908325 74.13095581 74.79174805 75.16918945 C76 77 76 77 77 80 C73.62818261 85.25774915 68.53873287 89.46438692 63.796875 93.45703125 C61.96165461 94.93863966 61.96165461 94.93863966 60.578125 96.76171875 C59 98 59 98 56.76464844 97.73266602 C53.72640603 96.92749421 51.04918069 95.81697338 48.1875 94.515625 C47.04361816 93.99895264 45.89973633 93.48228027 44.72119141 92.94995117 C43.48072169 92.38345969 42.24032646 91.81680506 41 91.25 C39.71164762 90.66528244 38.42306953 90.08106198 37.13427734 89.49731445 C35.12786575 88.58846799 33.12164198 87.67923058 31.11630249 86.76802063 C26.47700891 84.66146521 21.82503508 82.58544176 17.1640625 80.52734375 C-20.5619935 63.85637581 -20.5619935 63.85637581 -25 55 C-26.09506492 51.71480525 -26.09960608 49.26336585 -26.0625 45.8125 C-26.05347656 44.72582031 -26.04445312 43.63914062 -26.03515625 42.51953125 C-26.02355469 41.68808594 -26.01195312 40.85664063 -26 40 C-22.12726453 41.42013532 -18.79697279 43.23937434 -15.30078125 45.421875 C-14.18727295 46.11063721 -13.07376465 46.79939941 -11.92651367 47.5090332 C-11.33824799 47.87421051 -10.7499823 48.23938782 -10.14389038 48.6156311 C3.93790041 57.3379361 18.31986197 65.32174627 33 73 C34.11068848 73.58281738 35.22137695 74.16563477 36.36572266 74.76611328 C42.90166325 78.19447766 49.44565209 81.6069616 56 85 C52.00753774 81.7048776 47.84100905 78.77727769 43.5625 75.875 C36.61038223 71.12547056 29.72939568 66.28905693 22.8984375 61.3671875 C20.83000636 59.8775766 18.75872674 58.39197095 16.6875 56.90625 C9.16199742 51.4993735 1.67015993 46.05078693 -5.75 40.5 C-6.39308105 40.01998535 -7.03616211 39.5399707 -7.69873047 39.04541016 C-18.55877976 30.88244048 -18.55877976 30.88244048 -20 28 C-20.74830273 21.40021524 -20.24833884 15.34976002 -16 10 C-14.68224081 9.30305456 -13.34978673 8.63269108 -12 8 C-11.55720703 8.44802979 -11.11441406 8.89605957 -10.65820312 9.35766602 C-8.60823317 11.42870096 -6.55414567 13.49560697 -4.5 15.5625 C-3.80390625 16.26697266 -3.1078125 16.97144531 -2.390625 17.69726562 C1.66727816 21.77395537 5.81540184 25.67191212 10.17382812 29.42553711 C12.66010175 31.56911714 15.07901163 33.78319137 17.5 36 C21.28662998 39.45328153 25.1047632 42.86099051 28.97265625 46.22265625 C32.20678291 49.0579696 35.39022765 51.94926764 38.58203125 54.83203125 C40.5990169 56.64047557 42.63491596 58.4198734 44.6875 60.1875 C51.29521362 65.93333793 57.61833076 72.00596731 64 78 C62.28877436 74.36598423 60.20066113 71.87362897 57.4375 68.9375 C54.06238898 65.30968088 50.83997318 61.62840912 47.75 57.75 C42.86920354 51.69677023 37.55239055 46.091697 32.22265625 40.4375 C29.32430929 37.35960942 26.52046357 34.21519825 23.76171875 31.01171875 C21.42528636 28.34373055 19.02573234 25.73495361 16.625 23.125 C13.07240645 19.25982217 9.52400253 15.39132527 6 11.5 C5.29875 10.7265625 4.5975 9.953125 3.875 9.15625 C0.20809249 4.93930636 0.20809249 4.93930636 -1 3 C-0.67 2.01 -0.34 1.02 0 0 Z " fill="#F7F6F5" transform="translate(221,271)"/>
<path d="M0 0 C10.62699703 5.48442225 15.87220267 13.78858383 19.48046875 24.94140625 C19.48046875 29.56140625 19.48046875 34.18140625 19.48046875 38.94140625 C3.31046875 38.94140625 -12.85953125 38.94140625 -29.51953125 38.94140625 C-26.35843372 47.43006985 -26.35843372 47.43006985 -19.68359375 52.01953125 C-14.80236289 54.09890035 -8.9230064 53.7134316 -3.94140625 52.11328125 C-1.74277817 51.13773104 0.36691054 50.08816853 2.48046875 48.94140625 C3.81241417 48.27197094 5.14534813 47.60448629 6.48046875 46.94140625 C7.84987443 48.51157818 9.2005977 50.09806016 10.54296875 51.69140625 C11.29707031 52.573125 12.05117188 53.45484375 12.828125 54.36328125 C14.48046875 56.94140625 14.48046875 56.94140625 14.4453125 59.109375 C12.55344786 62.70162001 8.97981376 64.13762016 5.48046875 65.94140625 C4.85398437 66.26625 4.2275 66.59109375 3.58203125 66.92578125 C-5.89573115 70.89670146 -18.75978414 70.50487804 -28.20703125 66.81640625 C-37.8343335 62.06924202 -43.75678985 55.46011439 -47.33203125 45.31640625 C-50.28119232 34.20164891 -49.23376399 23.91955886 -43.51953125 13.94140625 C-33.91140358 -0.49517136 -16.22369465 -4.87971282 0 0 Z " fill="#040404" transform="translate(676.51953125,373.05859375)"/>
<path d="M0 0 C7.81312786 8.38482014 9.87439258 16.35623383 9.7578125 27.6171875 C9.7549826 28.65191193 9.75215271 29.68663635 9.74923706 30.75271606 C9.73808048 34.04359714 9.71298397 37.33420178 9.6875 40.625 C9.67746437 42.86197522 9.66833953 45.09895473 9.66015625 47.3359375 C9.6381559 52.80739748 9.603657 58.27865194 9.5625 63.75 C3.9525 63.75 -1.6575 63.75 -7.4375 63.75 C-7.4375 61.44 -7.4375 59.13 -7.4375 56.75 C-8.02917969 57.15992188 -8.62085938 57.56984375 -9.23046875 57.9921875 C-10.02066406 58.53101563 -10.81085938 59.06984375 -11.625 59.625 C-12.40230469 60.15867187 -13.17960937 60.69234375 -13.98046875 61.2421875 C-20.88031535 65.47643359 -27.49338283 65.58075735 -35.4375 64.75 C-42.61079135 62.63018831 -46.75175375 59.17033218 -50.4375 52.75 C-52.52332943 46.49251171 -52.5721802 39.14543597 -49.75 33.1875 C-44.77510512 27.94369189 -39.79268513 24.09857052 -32.43286133 23.50952148 C-28.95064319 23.45522626 -25.48181253 23.48841888 -22 23.5625 C-20.79150391 23.57603516 -19.58300781 23.58957031 -18.33789062 23.60351562 C-15.37062918 23.63870054 -12.40430063 23.68793304 -9.4375 23.75 C-9.7159375 22.49058594 -9.994375 21.23117187 -10.28125 19.93359375 C-10.43787109 19.22517334 -10.59449219 18.51675293 -10.75585938 17.78686523 C-12.03339804 13.96934909 -14.9101807 11.51365965 -18.4375 9.75 C-26.88264682 9.07394494 -33.19627156 9.24131059 -40.4375 13.75 C-41.4275 14.08 -42.4175 14.41 -43.4375 14.75 C-44.30596831 13.00705322 -45.15680627 11.25531337 -46 9.5 C-46.47566406 8.52546875 -46.95132812 7.5509375 -47.44140625 6.546875 C-48.4375 3.75 -48.4375 3.75 -48.3125 1.5234375 C-46.19857646 -2.76103254 -40.14832823 -3.99613278 -35.9375 -5.5 C-24.20289083 -8.04095868 -9.89295935 -7.38841268 0 0 Z " fill="#060606" transform="translate(1132.4375,377.25)"/>
<path d="M0 0 C5.94 0 11.88 0 18 0 C18 2.64 18 5.28 18 8 C18.88751953 7.38511719 18.88751953 7.38511719 19.79296875 6.7578125 C20.58316406 6.21898437 21.37335937 5.68015625 22.1875 5.125 C23.35345703 4.32449219 23.35345703 4.32449219 24.54296875 3.5078125 C31.95819126 -1.04270561 39.5876478 -0.6672448 48 0 C54.24463517 1.58008193 59.12323312 5.97201047 63 11 C66.37809744 16.96797214 68.13289672 22.82166413 68.11352539 29.69848633 C68.11341209 31.0493206 68.11341209 31.0493206 68.11329651 32.42744446 C68.10813522 33.3859581 68.10297394 34.34447174 68.09765625 35.33203125 C68.0962413 36.32377853 68.09482635 37.31552582 68.09336853 38.33732605 C68.08778418 41.49574843 68.07523452 44.65409915 68.0625 47.8125 C68.05748298 49.95768127 68.05292042 52.10286365 68.04882812 54.24804688 C68.03781987 59.4987254 68.02056597 64.74935056 68 70 C61.73 70 55.46 70 49 70 C48.94392578 65.44832031 48.94392578 65.44832031 48.88671875 60.8046875 C48.84046641 57.85572224 48.78924619 54.90688205 48.73754883 51.95800781 C48.70435859 49.9134892 48.67630837 47.86888026 48.65356445 45.82421875 C48.61991007 42.87981794 48.56758834 39.93624046 48.51171875 36.9921875 C48.50532883 36.0825827 48.4989389 35.17297791 48.49235535 34.23580933 C48.374049 29.09310991 47.86728534 25.44474371 45 21 C41.47905697 17.73668694 38.69606784 16.71185268 34 16.5 C29.30393216 16.71185268 26.52094303 17.73668694 23 21 C19.59766306 26.27415794 19.53094861 30.91849323 19.48828125 36.9921875 C19.47033005 37.93812775 19.45237885 38.88406799 19.43388367 39.8586731 C19.37993363 42.86407079 19.34593396 45.86931104 19.3125 48.875 C19.27931343 50.91929267 19.24482253 52.9635646 19.20898438 55.0078125 C19.12177297 60.00522908 19.06157339 65.00193935 19 70 C12.73 70 6.46 70 0 70 C0 46.9 0 23.8 0 0 Z " fill="#060606" transform="translate(962,371)"/>
<path d="M0 0 C-1.74807129 5.46737191 -3.65794081 10.75824848 -6 16 C-6.79921875 15.6390625 -7.5984375 15.278125 -8.421875 14.90625 C-15.9015101 11.7458408 -22.83070959 9.50333611 -31 11 C-33.32150761 12.26477085 -33.32150761 12.26477085 -35 14 C-35.66666667 16.5 -35.66666667 16.5 -35 19 C-31.43092346 22.77001651 -26.68917383 23.02137078 -21.8125 23.875 C-11.70422992 25.83568047 -4.07918827 28.26116686 2 37 C3.66303139 41.98909418 4.08473932 47.29750291 2.09375 52.2578125 C-2.49309624 59.99076481 -8.44318678 63.79755068 -17 66 C-29.52572019 68.89984519 -43.07219713 66.80410367 -54 60 C-54.859375 58.23046875 -54.859375 58.23046875 -55 56 C-54.00390625 53.203125 -54.00390625 53.203125 -52.5625 50.25 C-52.08941406 49.26515625 -51.61632812 48.2803125 -51.12890625 47.265625 C-50.57009766 46.14414062 -50.57009766 46.14414062 -50 45 C-47.55364375 45.95614628 -45.14765353 46.92877277 -42.78125 48.0703125 C-35.24910476 51.55263992 -27.22401832 52.52547092 -19.1640625 50.171875 C-18.44992187 49.78515625 -17.73578125 49.3984375 -17 49 C-16.10169161 45.94727535 -16.10169161 45.94727535 -16 43 C-22.07099978 39.50917512 -28.49815354 38.39133431 -35.30078125 36.98242188 C-42.28232936 35.43929 -46.81325527 33.76220387 -51.375 28 C-54.22959704 22.45802082 -53.79543131 15.84931937 -52.5625 9.8828125 C-50.25721552 3.39919991 -44.62418639 -0.45783514 -38.6875 -3.375 C-25.75102283 -8.03449102 -12.26980425 -5.0671758 0 0 Z " fill="#050506" transform="translate(759,376)"/>
<path d="M0 0 C5.94 0 11.88 0 18 0 C18 5.61 18 11.22 18 17 C23.28 17 28.56 17 34 17 C34 21.62 34 26.24 34 31 C28.72 31 23.44 31 18 31 C18.07404901 35.76977754 18.15691368 40.53769546 18.26245117 45.30664062 C18.29566835 46.92828686 18.32371035 48.55004781 18.34643555 50.171875 C18.38004155 52.50570477 18.4323576 54.83848635 18.48828125 57.171875 C18.49467117 57.89493835 18.5010611 58.61800171 18.50764465 59.36297607 C18.59808752 62.47185463 18.84268085 64.70974157 20.3359375 67.46484375 C22.94091024 69.86802283 25.24058099 69.38651164 28.6875 69.25 C29.86699219 69.21390625 31.04648437 69.1778125 32.26171875 69.140625 C33.16535156 69.09421875 34.06898438 69.0478125 35 69 C35.67528223 70.57967807 36.33989694 72.16391903 37 73.75 C37.37125 74.63171875 37.7425 75.5134375 38.125 76.421875 C39 79 39 79 39 83 C30.77358912 86.46375195 21.06843351 88.16135988 12.43359375 85.0859375 C6.57880412 81.6419436 2.00076679 76.54387384 0 70 C-0.2632171 66.99043802 -0.23298362 63.99950578 -0.1953125 60.98046875 C-0.1924826 60.12189774 -0.18965271 59.26332672 -0.18673706 58.3787384 C-0.1755807 55.64818125 -0.15048459 52.9179573 -0.125 50.1875 C-0.11496432 48.33138496 -0.1058395 46.47526476 -0.09765625 44.61914062 C-0.07565626 40.07929954 -0.04115781 35.53970619 0 31 C-3.3 31 -6.6 31 -10 31 C-10 26.38 -10 21.76 -10 17 C-6.7 17 -3.4 17 0 17 C0 11.39 0 5.78 0 0 Z " fill="#020203" transform="translate(777,356)"/>
<path d="M0 0 C5.94 0 11.88 0 18 0 C18.06794957 9.7537247 18.12291604 19.50729055 18.15543652 29.261199 C18.17104973 33.79100319 18.19220805 38.32063613 18.22631836 42.8503418 C18.25906753 47.22700227 18.27688564 51.60349868 18.28463173 55.98027229 C18.29014744 57.64472089 18.30091792 59.30916116 18.31719017 60.97353935 C18.49298644 79.71062054 18.49298644 79.71062054 12.8125 88.3125 C6.5562142 94.29072866 -0.4767367 96.33484305 -8.9921875 96.30078125 C-13.7266505 95.82733495 -17.75190395 94.06415079 -22 92 C-20.07289294 81.44191344 -20.07289294 81.44191344 -18 77 C-17.319375 77.33 -16.63875 77.66 -15.9375 78 C-12.3684339 79.21500122 -9.74874502 79.408954 -6 79 C-3.09282927 76.78136971 -2.16018357 75.48055071 -1 72 C-0.88164222 69.68536296 -0.82298911 67.36753705 -0.79467773 65.05004883 C-0.77982834 63.99600609 -0.77982834 63.99600609 -0.76467896 62.92066956 C-0.73310766 60.59949099 -0.70832387 58.27829195 -0.68359375 55.95703125 C-0.66302044 54.34705577 -0.64202387 52.73708564 -0.62062073 51.12712097 C-0.56543894 46.89063862 -0.51601251 42.65410784 -0.46777344 38.4175415 C-0.41752999 34.09407239 -0.36185877 29.77067356 -0.30664062 25.44726562 C-0.19910664 16.96490158 -0.09815272 8.48247779 0 0 Z " fill="#030303" transform="translate(1049,371)"/>
<path d="M0 0 C4.7577643 0.76464069 7.23955269 2.04127049 10.3125 5.75 C12.44030253 10.78953232 12.12729013 14.90018116 10.25 19.875 C7.84451831 23.5691326 6.04093807 25.17726548 1.75 26.25 C1.0075 26.353125 0.265 26.45625 -0.5 26.5625 C0.04140625 27.25085938 0.04140625 27.25085938 0.59375 27.953125 C1.0578125 28.56671875 1.521875 29.1803125 2 29.8125 C2.4640625 30.41578125 2.928125 31.0190625 3.40625 31.640625 C4.5 33.5625 4.5 33.5625 4.5 37.5625 C1.88666701 38.98795436 -0.72751161 40.41129648 -3.34765625 41.82421875 C-5.39807625 42.95487166 -7.42861079 44.12263407 -9.43359375 45.33203125 C-13.40763175 47.68558774 -16.50648618 49.44259316 -21.125 50 C-27.76870311 47.1702746 -33.38731225 41.06368327 -36.5 34.5625 C-37.07709266 30.7185611 -36.91031044 29.16500379 -34.70703125 25.9296875 C-33.91683594 25.10726563 -33.12664062 24.28484375 -32.3125 23.4375 C-31.53519531 22.60992187 -30.75789063 21.78234375 -29.95703125 20.9296875 C-23.49901053 14.70781062 -23.49901053 14.70781062 -19.0625 14.0625 C-14.91181328 14.64505252 -12.79401261 16.03453683 -9.5 18.5625 C-8.84 18.8925 -8.18 19.2225 -7.5 19.5625 C-7.83 18.5725 -8.16 17.5825 -8.5 16.5625 C-9.08953356 11.66937143 -9.44619123 7.07075124 -6.4375 2.9375 C-3.5 0.5625 -3.5 0.5625 0 0 Z " fill="#0C0B0B" transform="translate(462.5,288.4375)"/>
<path d="M0 0 C5.94 0 11.88 0 18 0 C18 23.1 18 46.2 18 70 C12.06 70 6.12 70 0 70 C0 46.9 0 23.8 0 0 Z " fill="#020202" transform="translate(926,371)"/>
<path d="M0 0 C2.85563844 2.15494938 5.55194253 4.38633864 8 7 C8 7.33 8 7.66 8 8 C5.52161318 8.4835135 3.04240222 8.96187201 0.5625 9.4375 C-0.12521484 9.57220703 -0.81292969 9.70691406 -1.52148438 9.84570312 C-11.83749203 11.81294179 -21.95097405 12.1997994 -32.4375 12.1875 C-33.14532623 12.18789276 -33.85315247 12.18828552 -34.58242798 12.18869019 C-47.2049544 12.18029695 -59.61659669 11.62821753 -72 9 C-68.62414789 1.15114384 -59.49886468 -2.83431162 -52 -6 C-34.81689026 -12.75436704 -15.46390664 -9.40431401 0 0 Z " fill="#F5F6F6" transform="translate(457,257)"/>
<path d="M0 0 C3.0384912 0.23137936 4.61968799 0.96833051 7.21875 2.51953125 C7.99089844 2.97328125 8.76304687 3.42703125 9.55859375 3.89453125 C10.27144531 4.32765625 10.98429687 4.76078125 11.71875 5.20703125 C12.729375 5.80515625 13.74 6.40328125 14.78125 7.01953125 C15.420625 7.41140625 16.06 7.80328125 16.71875 8.20703125 C-1.13977261 23.35693475 -32.60597765 24.37010323 -54.57519531 23.45263672 C-58.04342703 23.13785495 -61.0080825 22.37467983 -64.28125 21.20703125 C-62.90115379 17.87179873 -61.43174348 16.02095174 -58.28125 14.20703125 C-57.29125 14.53703125 -56.30125 14.86703125 -55.28125 15.20703125 C-36.78819075 17.08859251 -19.20206335 10.00918786 -3.28125 1.20703125 C-2.28125 0.20703125 -2.28125 0.20703125 0 0 Z " fill="#F5F4F4" transform="translate(311.28125,395.79296875)"/>
<path d="M0 0 C3.9718707 2.13869961 6.39348732 3.7727247 8 8 C8.30078125 10.83984375 8.30078125 10.83984375 8.3125 13.9375 C8.32925781 14.95714844 8.34601563 15.97679687 8.36328125 17.02734375 C7.95085176 20.40217003 6.97262263 22.25970649 5 25 C2.01129472 27.32454855 -1.30003326 27.47714072 -5.03515625 27.38671875 C-8.43645719 26.71727781 -9.9511386 24.6514677 -12 22 C-14.52064981 17.70162875 -14.54162579 13.8746321 -14 9 C-12.7177972 5.35584467 -11.67964875 3.55106655 -8.6875 1.125 C-5.43064391 -0.23833511 -3.50329831 -0.50047119 0 0 Z " fill="#080809" transform="translate(409,289)"/>
<path d="M0 0 C4.40295581 2.16145103 7.39012327 4.84352966 10 9 C10.33 11.31 10.66 13.62 11 16 C0.44 16 -10.12 16 -21 16 C-19.99982302 8.99876116 -19.07044959 5.79131781 -13.9375 1.125 C-9.31289624 -0.64612484 -4.88331747 -0.64632143 0 0 Z " fill="#EEEFEE" transform="translate(668,386)"/>
<path d="M0 0 C2.475 4.455 2.475 4.455 5 9 C-10.40400112 15.18160565 -24.34026986 18.58417236 -41 18 C-38.9904243 13.81791002 -37.10587059 10.35929099 -33 8 C-29.76048469 7.39553178 -26.60871978 7.03645911 -23.33105469 6.75952148 C-15.29658967 6.01425559 -7.48176296 0 0 0 Z " fill="#F2F2F1" transform="translate(303,384)"/>
<path d="M0 0 C3.63467079 1.62400184 4.77408696 2.66113044 7 6 C7.73965025 10.59271203 7.60961194 14.02462089 5.125 18 C1.40957094 21.49687441 -1.58097235 21.32862375 -6.515625 21.29296875 C-9.97198834 20.88537873 -11.68663869 19.53723498 -14 17 C-15.72869779 13.54260443 -15.48966895 9.78024432 -15 6 C-11.03325985 -0.34678423 -7.04525094 -0.69477388 0 0 Z " fill="#060606" transform="translate(1062,341)"/>
<path d="M0 0 C2.96912882 1.38980498 4.69657028 2.69657028 7 5 C7.64137444 9.23973493 7.4285479 12.99291244 5.75 16.9375 C3.43658568 19.66402402 1.34460874 20.77148868 -2.18359375 21.37109375 C-6.61365149 21.50161538 -8.3991145 21.47570102 -12 18.625 C-14.80312695 14.94589588 -15.3355147 12.71911715 -15.29296875 8.0390625 C-14.83745033 4.86865433 -13.24684343 3.1807598 -11 1 C-7.55643018 -0.72178491 -3.7728428 -0.37858976 0 0 Z " fill="#060606" transform="translate(939,341)"/>
<path d="M0 0 C0.87914062 0.02255859 1.75828125 0.04511719 2.6640625 0.06835938 C4.81845007 0.12690252 6.9719531 0.21657217 9.125 0.3125 C9.27930862 9.76390281 9.27930862 9.76390281 6.125 13.3125 C0.9425655 16.94616097 -3.61901733 18.13295674 -9.875 17.3125 C-12.6850346 15.51886089 -14.38440468 14.29369065 -15.875 11.3125 C-16.3125 8.5 -16.3125 8.5 -15.875 5.3125 C-10.97350163 -0.13714 -7.09141594 -0.34709491 0 0 Z " fill="#F5F5F5" transform="translate(1113.875,411.6875)"/>
<path d="M0 0 C4.01234147 1.31172702 5.82019891 3.29382432 8.63671875 6.34765625 C10.28199927 8.19707866 10.28199927 8.19707866 12.6875 9.875 C13.203125 10.266875 13.71875 10.65875 14.25 11.0625 C14.25 11.7225 14.25 12.3825 14.25 13.0625 C5.73627215 13.37524919 -2.3530674 12.43542913 -10.75 11.0625 C-10.75 6.74000434 -8.60084926 5.17854454 -5.75 2.0625 C-2.75 0.0625 -2.75 0.0625 0 0 Z " fill="#F2F2F1" transform="translate(444.75,308.9375)"/>
<path d="M0 0 C0.99 0.33 1.98 0.66 3 1 C3.33 4.63 3.66 8.26 4 12 C2.10614563 12.50744423 0.20981334 13.00564574 -1.6875 13.5 C-2.74324219 13.7784375 -3.79898437 14.056875 -4.88671875 14.34375 C-7.71142672 14.9391715 -10.12836708 15.12786492 -13 15 C-11.38989473 10.92623969 -8.46177729 8.23492931 -5.375 5.25 C-4.859375 4.74339844 -4.34375 4.23679687 -3.8125 3.71484375 C-2.54616661 2.47196098 -1.2736856 1.23534724 0 0 Z " fill="#EEECEB" transform="translate(295,368)"/>
<path d="M0 0 C0.66 0.33 1.32 0.66 2 1 C0.61240749 2.61130023 -0.78545623 4.21375841 -2.1875 5.8125 C-2.96480469 6.70582031 -3.74210937 7.59914063 -4.54296875 8.51953125 C-7.47494114 11.47947158 -10.01773217 13.74054086 -14.23828125 14.29296875 C-16.15885417 14.1953125 -18.07942708 14.09765625 -20 14 C-20.66 12.68 -21.32 11.36 -22 10 C-19.64648632 8.89442408 -17.2922159 7.79051018 -14.9375 6.6875 C-14.28072266 6.37876953 -13.62394531 6.07003906 -12.94726562 5.75195312 C-10.968709 4.82602761 -8.98507731 3.91185044 -7 3 C-6.34402832 2.69143066 -5.68805664 2.38286133 -5.01220703 2.06494141 C-3.36781766 1.31586385 -1.68587391 0.65035585 0 0 Z " fill="#EEEDED" transform="translate(437,444)"/>
<path d="M0 0 C8.26229029 8.17423747 15.87266611 16.82206446 23 26 C19.2777104 26 18.84101728 25.23833683 16.234375 22.7109375 C15.50863281 22.01613281 14.78289062 21.32132812 14.03515625 20.60546875 C12.90400391 19.50138672 12.90400391 19.50138672 11.75 18.375 C10.26706177 16.94382227 8.78270328 15.51411459 7.296875 14.0859375 C6.57951172 13.3959668 5.86214844 12.70599609 5.12304688 11.99511719 C2.1695135 9.21955662 -0.89479621 6.60409947 -4 4 C-3.34 3.34 -2.68 2.68 -2 2 C-1.67 2.33 -1.34 2.66 -1 3 C-0.67 2.01 -0.34 1.02 0 0 Z " fill="#141514" transform="translate(264,323)"/>
<path d="M0 0 C3.53571429 0.53571429 3.53571429 0.53571429 5 2 C5.125 5 5.125 5 5 8 C4 9 4 9 1.4375 9.0625 C0.633125 9.041875 -0.17125 9.02125 -1 9 C-1.625 5.625 -1.625 5.625 -2 2 C-1.34 1.34 -0.68 0.68 0 0 Z " fill="#EDEDEF" transform="translate(401,293)"/>
<path d="M0 0 C10.55808656 -0.18451025 10.55808656 -0.18451025 15 1 C12.45229332 4.11386372 9.97110653 5.37708133 6 6 C3.51834192 4.62130107 2.02016976 3.06826904 0 1 C0 0.67 0 0.34 0 0 Z " fill="#DDDBD9" transform="translate(436,326)"/>
<path d="M0 0 C1.67542976 0.28604898 3.34385343 0.61781233 5 1 C6.125 4.75 6.125 4.75 5 7 C3.33388095 7.042721 1.66617115 7.04063832 0 7 C-1 6 -1 6 -1.125 3.5 C-1 1 -1 1 0 0 Z " fill="#F0F0EE" transform="translate(465,293)"/>
<path d="M0 0 C3.21422633 0.28751107 4.09344717 1.09917158 6.359375 3.50390625 C7.14828125 4.51324219 7.9371875 5.52257812 8.75 6.5625 C9.54921875 7.57441406 10.3484375 8.58632813 11.171875 9.62890625 C11.77515625 10.41136719 12.3784375 11.19382812 13 12 C8.90785226 12 7.80806297 10.39777126 4.8125 7.6875 C3.91144531 6.88699219 3.01039063 6.08648437 2.08203125 5.26171875 C0 3 0 3 0 0 Z " fill="#1B1B1B" transform="translate(274,337)"/>
<path d="M0 0 C2.4375 0.8125 2.4375 0.8125 5 2 C5.33 2.99 5.66 3.98 6 5 C4.7625 4.7834375 4.7625 4.7834375 3.5 4.5625 C-0.32686278 3.94746848 -4.15216707 3.46439363 -8 3 C-8 2.67 -8 2.34 -8 2 C-6.865625 1.855625 -5.73125 1.71125 -4.5625 1.5625 C-1.19222799 1.38828522 -1.19222799 1.38828522 0 0 Z " fill="#CECECF" transform="translate(359,506)"/>
<path d="M0 0 C4.20626034 1.50223584 5.73900021 4.28550034 8 8 C4.63820226 6.55922954 2.40843732 4.75249979 0 2 C0 1.34 0 0.68 0 0 Z " fill="#2A2B2B" transform="translate(279,342)"/>
<path d="M0 0 C1.98 0 3.96 0 6 0 C5.67 1.65 5.34 3.3 5 5 C3.35 3.35 1.7 1.7 0 0 Z " fill="#F1F0EF" transform="translate(436,326)"/>
</svg>
